<svg width="256" height="256" viewBox="0 0 256 256" fill="none" xmlns="http://www.w3.org/2000/svg">
<rect width="256" height="256" rx="128" fill="url(#paint0_linear_750_77)"/>
<g filter="url(#filter0_d_750_77)">
<path d="M28.0621 87.9091L35.6332 110.807H35.9315L43.4883 87.9091H49.2837L39.0281 117H32.5224L22.2809 87.9091H28.0621ZM53.1154 117V87.9091H58.3853V100.224H71.8654V87.9091H77.1495V117H71.8654V104.642H58.3853V117H53.1154ZM112.292 97.1989C112.055 96.4318 111.728 95.7453 111.311 95.1392C110.904 94.5237 110.412 93.9981 109.834 93.5625C109.266 93.1269 108.613 92.8002 107.874 92.5824C107.135 92.3551 106.33 92.2415 105.459 92.2415C103.897 92.2415 102.505 92.6345 101.283 93.4205C100.061 94.2064 99.1003 95.3617 98.3995 96.8864C97.7082 98.4015 97.3626 100.248 97.3626 102.426C97.3626 104.623 97.7082 106.484 98.3995 108.009C99.0908 109.533 100.052 110.693 101.283 111.489C102.514 112.275 103.944 112.668 105.573 112.668C107.05 112.668 108.328 112.384 109.408 111.815C110.497 111.247 111.335 110.442 111.922 109.401C112.509 108.349 112.803 107.118 112.803 105.707L113.996 105.892H106.098V101.773H117.902V105.267C117.902 107.758 117.372 109.912 116.311 111.73C115.251 113.548 113.792 114.95 111.936 115.935C110.08 116.91 107.95 117.398 105.544 117.398C102.864 117.398 100.511 116.796 98.4847 115.594C96.4677 114.382 94.891 112.663 93.7546 110.438C92.6277 108.203 92.0643 105.551 92.0643 102.483C92.0643 100.134 92.3957 98.0369 93.0586 96.1903C93.7309 94.3438 94.6684 92.7765 95.8711 91.4886C97.0737 90.1913 98.4847 89.2064 100.104 88.5341C101.723 87.8523 103.485 87.5114 105.388 87.5114C106.998 87.5114 108.499 87.7481 109.891 88.2216C111.283 88.6856 112.519 89.3485 113.598 90.2102C114.687 91.072 115.582 92.0947 116.283 93.2784C116.984 94.4621 117.443 95.7689 117.661 97.1989H112.292ZM125.836 117H120.211L130.452 87.9091H136.958L147.213 117H141.588L133.819 93.875H133.591L125.836 117ZM126.02 105.594H141.361V109.827H126.02V105.594ZM151.045 87.9091H157.494L166.13 108.989H166.471L175.108 87.9091H181.556V117H176.5V97.0142H176.23L168.19 116.915H164.412L156.372 96.9716H156.102V117H151.045V87.9091ZM187.295 117V87.9091H206.216V92.3267H192.565V100.224H205.235V104.642H192.565V112.582H206.329V117H187.295ZM227.402 95.9062C227.269 94.6657 226.71 93.6998 225.725 93.0085C224.75 92.3172 223.481 91.9716 221.919 91.9716C220.82 91.9716 219.878 92.1373 219.092 92.4688C218.306 92.8002 217.705 93.25 217.288 93.8182C216.871 94.3864 216.658 95.035 216.649 95.7642C216.649 96.3703 216.786 96.8958 217.061 97.3409C217.345 97.786 217.728 98.1648 218.211 98.4773C218.694 98.7803 219.229 99.036 219.816 99.2443C220.404 99.4527 220.995 99.6278 221.592 99.7699L224.319 100.452C225.418 100.707 226.474 101.053 227.487 101.489C228.51 101.924 229.423 102.473 230.228 103.136C231.043 103.799 231.687 104.599 232.16 105.537C232.634 106.474 232.87 107.573 232.87 108.832C232.87 110.537 232.435 112.038 231.564 113.335C230.692 114.623 229.433 115.632 227.785 116.361C226.147 117.08 224.163 117.44 221.833 117.44C219.57 117.44 217.605 117.09 215.939 116.389C214.281 115.688 212.984 114.666 212.047 113.321C211.118 111.976 210.617 110.338 210.541 108.406H215.725C215.801 109.42 216.114 110.262 216.663 110.935C217.212 111.607 217.927 112.109 218.808 112.44C219.698 112.772 220.692 112.938 221.791 112.938C222.937 112.938 223.94 112.767 224.802 112.426C225.673 112.076 226.355 111.593 226.848 110.977C227.34 110.352 227.591 109.623 227.6 108.79C227.591 108.032 227.368 107.407 226.933 106.915C226.497 106.413 225.886 105.996 225.1 105.665C224.324 105.324 223.415 105.021 222.373 104.756L219.064 103.903C216.668 103.288 214.774 102.355 213.382 101.105C211.999 99.8456 211.308 98.1742 211.308 96.0909C211.308 94.3769 211.772 92.8759 212.7 91.5881C213.637 90.3002 214.911 89.3011 216.521 88.5909C218.131 87.8712 219.954 87.5114 221.99 87.5114C224.054 87.5114 225.863 87.8712 227.416 88.5909C228.978 89.3011 230.205 90.2907 231.095 91.5597C231.985 92.8191 232.444 94.268 232.473 95.9062H227.402ZM31.3381 135.909H37.7869L46.4233 156.989H46.7642L55.4006 135.909H61.8494V165H56.7926V145.014H56.5227L48.483 164.915H44.7045L36.6648 144.972H36.3949V165H31.3381V135.909ZM76.8778 165.426C74.7472 165.426 72.9006 164.957 71.3381 164.02C69.7756 163.082 68.5634 161.771 67.7017 160.085C66.8494 158.4 66.4233 156.43 66.4233 154.176C66.4233 151.922 66.8494 149.948 67.7017 148.253C68.5634 146.558 69.7756 145.241 71.3381 144.304C72.9006 143.366 74.7472 142.898 76.8778 142.898C79.0085 142.898 80.8551 143.366 82.4176 144.304C83.9801 145.241 85.1875 146.558 86.0398 148.253C86.9015 149.948 87.3324 151.922 87.3324 154.176C87.3324 156.43 86.9015 158.4 86.0398 160.085C85.1875 161.771 83.9801 163.082 82.4176 164.02C80.8551 164.957 79.0085 165.426 76.8778 165.426ZM76.9062 161.307C78.0616 161.307 79.0275 160.99 79.804 160.355C80.5805 159.711 81.1581 158.849 81.5369 157.77C81.9252 156.69 82.1193 155.488 82.1193 154.162C82.1193 152.827 81.9252 151.619 81.5369 150.54C81.1581 149.451 80.5805 148.584 79.804 147.94C79.0275 147.296 78.0616 146.974 76.9062 146.974C75.7225 146.974 74.7377 147.296 73.9517 147.94C73.1752 148.584 72.5928 149.451 72.2045 150.54C71.8258 151.619 71.6364 152.827 71.6364 154.162C71.6364 155.488 71.8258 156.69 72.2045 157.77C72.5928 158.849 73.1752 159.711 73.9517 160.355C74.7377 160.99 75.7225 161.307 76.9062 161.307ZM91.6967 165V143.182H96.6825V146.818H96.9098C97.3075 145.559 97.9893 144.588 98.9553 143.906C99.9306 143.215 101.043 142.869 102.293 142.869C102.577 142.869 102.895 142.884 103.245 142.912C103.605 142.931 103.903 142.964 104.14 143.011V147.741C103.922 147.666 103.576 147.599 103.103 147.543C102.639 147.476 102.189 147.443 101.754 147.443C100.816 147.443 99.9732 147.647 99.2251 148.054C98.4865 148.452 97.9041 149.006 97.478 149.716C97.0518 150.426 96.8388 151.245 96.8388 152.173V165H91.6967ZM107.783 165V135.909H112.925V146.79H113.138C113.404 146.259 113.778 145.696 114.261 145.099C114.744 144.493 115.397 143.977 116.221 143.551C117.045 143.116 118.096 142.898 119.374 142.898C121.06 142.898 122.58 143.329 123.934 144.19C125.298 145.043 126.377 146.307 127.173 147.983C127.978 149.65 128.38 151.695 128.38 154.119C128.38 156.515 127.987 158.551 127.201 160.227C126.415 161.903 125.345 163.182 123.991 164.062C122.637 164.943 121.103 165.384 119.388 165.384C118.138 165.384 117.102 165.175 116.278 164.759C115.454 164.342 114.791 163.84 114.289 163.253C113.797 162.656 113.413 162.093 113.138 161.562H112.84V165H107.783ZM112.826 154.091C112.826 155.502 113.025 156.738 113.423 157.798C113.83 158.859 114.412 159.687 115.17 160.284C115.937 160.871 116.865 161.165 117.954 161.165C119.09 161.165 120.042 160.862 120.809 160.256C121.576 159.64 122.154 158.802 122.542 157.741C122.94 156.671 123.138 155.455 123.138 154.091C123.138 152.737 122.944 151.534 122.556 150.483C122.168 149.432 121.59 148.608 120.823 148.011C120.056 147.415 119.1 147.116 117.954 147.116C116.855 147.116 115.923 147.405 115.156 147.983C114.388 148.561 113.806 149.37 113.408 150.412C113.02 151.454 112.826 152.68 112.826 154.091ZM142.411 165.426C140.223 165.426 138.334 164.972 136.743 164.062C135.161 163.144 133.945 161.847 133.092 160.17C132.24 158.485 131.814 156.501 131.814 154.219C131.814 151.974 132.24 150.005 133.092 148.31C133.954 146.605 135.157 145.279 136.7 144.332C138.244 143.376 140.057 142.898 142.141 142.898C143.485 142.898 144.754 143.116 145.947 143.551C147.15 143.977 148.211 144.64 149.129 145.54C150.057 146.439 150.786 147.585 151.317 148.977C151.847 150.36 152.112 152.008 152.112 153.92V155.497H134.229V152.031H147.183C147.174 151.046 146.961 150.17 146.544 149.403C146.127 148.627 145.545 148.016 144.797 147.571C144.058 147.126 143.196 146.903 142.212 146.903C141.161 146.903 140.237 147.159 139.442 147.67C138.646 148.172 138.026 148.835 137.581 149.659C137.145 150.473 136.923 151.368 136.913 152.344V155.369C136.913 156.638 137.145 157.727 137.609 158.636C138.073 159.536 138.722 160.227 139.555 160.71C140.389 161.184 141.364 161.42 142.482 161.42C143.23 161.42 143.907 161.316 144.513 161.108C145.119 160.89 145.644 160.573 146.089 160.156C146.535 159.74 146.871 159.223 147.098 158.608L151.899 159.148C151.596 160.417 151.018 161.525 150.166 162.472C149.323 163.409 148.244 164.138 146.928 164.659C145.611 165.17 144.106 165.426 142.411 165.426ZM165.951 173.636C164.104 173.636 162.518 173.385 161.192 172.884C159.867 172.391 158.801 171.728 157.996 170.895C157.192 170.062 156.633 169.138 156.32 168.125L160.951 167.003C161.159 167.429 161.462 167.85 161.86 168.267C162.258 168.693 162.793 169.044 163.465 169.318C164.147 169.602 165.004 169.744 166.036 169.744C167.495 169.744 168.702 169.389 169.658 168.679C170.615 167.978 171.093 166.823 171.093 165.213V161.08H170.837C170.572 161.61 170.184 162.154 169.673 162.713C169.171 163.272 168.503 163.741 167.67 164.119C166.846 164.498 165.809 164.688 164.559 164.688C162.883 164.688 161.363 164.295 159.999 163.509C158.645 162.713 157.566 161.529 156.761 159.957C155.965 158.376 155.567 156.397 155.567 154.02C155.567 151.624 155.965 149.602 156.761 147.955C157.566 146.297 158.65 145.043 160.013 144.19C161.377 143.329 162.897 142.898 164.573 142.898C165.852 142.898 166.903 143.116 167.727 143.551C168.56 143.977 169.223 144.493 169.715 145.099C170.208 145.696 170.582 146.259 170.837 146.79H171.121V143.182H176.192V165.355C176.192 167.221 175.747 168.764 174.857 169.986C173.967 171.207 172.75 172.121 171.207 172.727C169.663 173.333 167.911 173.636 165.951 173.636ZM165.994 160.653C167.083 160.653 168.011 160.388 168.778 159.858C169.545 159.328 170.127 158.565 170.525 157.571C170.923 156.577 171.121 155.384 171.121 153.991C171.121 152.618 170.923 151.416 170.525 150.384C170.137 149.351 169.559 148.551 168.792 147.983C168.034 147.405 167.102 147.116 165.994 147.116C164.848 147.116 163.891 147.415 163.124 148.011C162.357 148.608 161.78 149.427 161.391 150.469C161.003 151.501 160.809 152.675 160.809 153.991C160.809 155.327 161.003 156.496 161.391 157.5C161.789 158.494 162.371 159.271 163.138 159.83C163.915 160.379 164.867 160.653 165.994 160.653ZM186.604 152.216V165H181.462V143.182H186.377V146.889H186.633C187.135 145.668 187.935 144.697 189.033 143.977C190.141 143.258 191.51 142.898 193.138 142.898C194.644 142.898 195.956 143.22 197.073 143.864C198.2 144.508 199.071 145.44 199.687 146.662C200.312 147.884 200.62 149.366 200.61 151.108V165H195.468V151.903C195.468 150.445 195.089 149.304 194.332 148.48C193.584 147.656 192.547 147.244 191.221 147.244C190.321 147.244 189.521 147.443 188.82 147.841C188.129 148.229 187.585 148.793 187.187 149.531C186.799 150.27 186.604 151.165 186.604 152.216ZM215.354 165.426C213.224 165.426 211.377 164.957 209.815 164.02C208.252 163.082 207.04 161.771 206.178 160.085C205.326 158.4 204.9 156.43 204.9 154.176C204.9 151.922 205.326 149.948 206.178 148.253C207.04 146.558 208.252 145.241 209.815 144.304C211.377 143.366 213.224 142.898 215.354 142.898C217.485 142.898 219.332 143.366 220.894 144.304C222.457 145.241 223.664 146.558 224.516 148.253C225.378 149.948 225.809 151.922 225.809 154.176C225.809 156.43 225.378 158.4 224.516 160.085C223.664 161.771 222.457 163.082 220.894 164.02C219.332 164.957 217.485 165.426 215.354 165.426ZM215.383 161.307C216.538 161.307 217.504 160.99 218.281 160.355C219.057 159.711 219.635 158.849 220.013 157.77C220.402 156.69 220.596 155.488 220.596 154.162C220.596 152.827 220.402 151.619 220.013 150.54C219.635 149.451 219.057 148.584 218.281 147.94C217.504 147.296 216.538 146.974 215.383 146.974C214.199 146.974 213.214 147.296 212.428 147.94C211.652 148.584 211.069 149.451 210.681 150.54C210.302 151.619 210.113 152.827 210.113 154.162C210.113 155.488 210.302 156.69 210.681 157.77C211.069 158.849 211.652 159.711 212.428 160.355C213.214 160.99 214.199 161.307 215.383 161.307Z" fill="white"/>
</g>
<defs>
<filter id="filter0_d_750_77" x="18.2812" y="87.5117" width="218.59" height="94.125" filterUnits="userSpaceOnUse" color-interpolation-filters="sRGB">
<feFlood flood-opacity="0" result="BackgroundImageFix"/>
<feColorMatrix in="SourceAlpha" type="matrix" values="0 0 0 0 0 0 0 0 0 0 0 0 0 0 0 0 0 0 127 0" result="hardAlpha"/>
<feOffset dy="4"/>
<feGaussianBlur stdDeviation="2"/>
<feComposite in2="hardAlpha" operator="out"/>
<feColorMatrix type="matrix" values="0 0 0 0 0 0 0 0 0 0 0 0 0 0 0 0 0 0 0.25 0"/>
<feBlend mode="normal" in2="BackgroundImageFix" result="effect1_dropShadow_750_77"/>
<feBlend mode="normal" in="SourceGraphic" in2="effect1_dropShadow_750_77" result="shape"/>
</filter>
<linearGradient id="paint0_linear_750_77" x1="0" y1="0" x2="256" y2="256" gradientUnits="userSpaceOnUse">
<stop stop-color="#5B9DF9"/>
<stop offset="1" stop-color="#E15AE6"/>
</linearGradient>
</defs>
</svg>
