<svg width="20" height="20" viewBox="0 0 20 20" fill="none" xmlns="http://www.w3.org/2000/svg">
<g clip-path="url(#clip0_167_4)">
<path d="M0.401947 7.36793C0.401947 8.04593 0.629947 8.56393 1.07795 8.86393C0.805947 9.01993 0.405948 9.79593 0.405948 10.4819C0.431948 11.6139 1.50595 12.4519 3.12395 12.4519H7.41395C6.67995 14.4939 6.81795 17.2479 7.73995 18.7179C8.29395 19.6019 8.96195 19.7999 9.42395 19.7999C10.9799 19.7999 11.0319 18.2679 11.0319 17.7459C11.0319 16.0039 11.2779 15.2079 11.5859 14.4759C11.8299 14.0019 13.3199 12.4419 14.8419 12.4419H17.6959C18.7979 12.4419 19.5959 11.4999 19.5959 10.1599L18.8559 2.18393C18.7679 0.955927 18.1759 0.211927 16.9899 0.211927C16.9899 0.211927 16.3999 0.207928 15.9579 0.207928C15.7319 0.207928 15.5219 0.209927 15.3979 0.211927C15.0319 0.223927 14.7319 0.463927 14.4659 0.663927C14.2779 0.805927 14.1279 0.927928 13.9939 0.927928C13.9339 0.927928 13.5879 0.725927 13.1619 0.541927C12.7299 0.353927 12.0419 0.199927 11.3839 0.199927H5.41395C3.41395 0.199927 2.45395 0.965927 2.45195 2.24193C2.45195 2.61793 2.53795 2.84193 2.74395 3.13593C1.93995 3.33193 1.22795 3.84793 1.22795 4.73793C1.22795 5.06793 1.37995 5.59793 1.58795 5.73793C1.19395 5.83993 0.399947 6.55593 0.401947 7.36793ZM15.4259 1.01593C15.7839 1.00393 17.0659 1.01593 17.0739 1.01593C17.5339 1.01593 17.9419 1.45793 18.0459 2.05393L18.7859 10.3439C18.7859 10.9639 18.2979 11.6439 17.6439 11.6439V11.6399L14.8419 11.6319C14.7939 11.6319 14.7459 11.6379 14.6979 11.6399L14.6979 1.49793C14.8279 1.40593 14.9499 1.31593 15.0359 1.24993C15.1539 1.16193 15.3539 1.02393 15.4259 1.01593ZM2.33995 6.27993H2.44795L2.43795 5.53993C2.35195 5.50593 2.02995 5.40793 2.02995 4.76393C2.02995 4.07393 2.91595 3.79793 3.66395 3.79793H3.66195L3.67395 3.09193C3.37195 3.02193 3.25995 2.75193 3.25995 2.31793C3.25995 1.55993 3.86395 1.01393 5.43195 1.01393H11.6119C11.9079 1.01393 12.5079 1.18993 12.8539 1.35993C13.1799 1.51993 13.7019 1.82193 13.8839 1.92193L13.8839 11.7739C12.3299 12.2139 11.0479 13.5819 10.7239 14.2139C10.3719 15.0499 10.1939 15.9239 10.1939 17.8419C10.1939 18.7939 9.85195 18.9219 9.48595 18.9219C9.16395 18.9219 8.65195 18.5599 8.39195 18.1439C7.62395 16.9219 7.44395 14.2859 8.39995 12.3119L8.56395 11.6299L3.08595 11.6319C2.15395 11.5799 1.21595 11.1899 1.21595 10.4879L1.22195 10.2679C1.21995 10.2599 1.24595 9.65793 1.55795 9.39393C1.81995 9.17193 2.03195 9.16393 2.03195 9.16393L2.03795 8.43593C2.03795 8.43593 1.72195 8.39193 1.55795 8.27593C1.30995 8.10193 1.19795 7.77193 1.20995 7.41193C1.22595 6.95793 1.91395 6.27993 2.33995 6.27993Z" fill="white"/>
</g>
<defs>
<clipPath id="clip0_167_4">
<rect width="20" height="20" fill="white"/>
</clipPath>
</defs>
</svg>
