<svg width="20" height="20" viewBox="0 0 20 20" fill="none" xmlns="http://www.w3.org/2000/svg">
<g clip-path="url(#clip0_168_2)">
<path d="M17.5877 18.8866H2.41241C2.10314 18.8866 1.85571 19.134 1.85571 19.4433C1.85571 19.7526 2.10314 20 2.41241 20H17.5877C17.897 20 18.1444 19.7526 18.1444 19.4433C18.1444 19.134 17.897 18.8866 17.5877 18.8866Z" fill="white"/>
<path d="M9.60826 15.6165C9.71135 15.7196 9.85568 15.7814 10 15.7814C10.1443 15.7814 10.2887 15.7237 10.3918 15.6165L14.8248 11.1835C15.0433 10.9649 15.0433 10.6144 14.8248 10.3959C14.6062 10.1773 14.2557 10.1773 14.0371 10.3959L10.5567 13.8763V0.556701C10.5567 0.247423 10.3093 0 10 0C9.69073 0 9.44331 0.247423 9.44331 0.556701V13.8763L5.9629 10.3959C5.74434 10.1773 5.39383 10.1773 5.17527 10.3959C4.95671 10.6144 4.95671 10.9649 5.17527 11.1835L9.60826 15.6165Z" fill="white"/>
</g>
<defs>
<clipPath id="clip0_168_2">
<rect width="20" height="20" fill="white"/>
</clipPath>
</defs>
</svg>
