<svg width="20" height="22" viewBox="0 0 20 22" fill="none" xmlns="http://www.w3.org/2000/svg">
<g clip-path="url(#clip0_165_28)">
<path d="M11.4286 10.838C11.746 10.838 11.9819 10.5809 11.9819 10.2847C11.9819 9.96902 11.7247 9.73137 11.4286 9.73137H4.38947C4.07378 9.73137 3.83613 9.98853 3.83613 10.2847C3.83613 10.6004 4.09329 10.838 4.38947 10.838H11.4286ZM13.7359 3.49922L16.946 0.104696C17.0684 0.00183224 17.1925 -0.0389588 17.3362 0.0426232L19.9184 2.54329C20.0213 2.66566 20.0408 2.80932 19.8971 2.95297L16.6268 6.40956L13.7359 3.49922ZM15.5609 7.49673L12.2515 8.18131L12.67 4.58461L15.5609 7.49673ZM3.39452 2.3216H10.7954L10.2545 3.46552H3.39452C2.77733 3.46552 2.21513 3.71913 1.80544 4.12704C1.39576 4.53495 1.14392 5.09539 1.14392 5.71612V13.8282C1.14392 14.4454 1.39753 15.0094 1.80544 15.4173C2.21335 15.8252 2.77556 16.0788 3.39452 16.0788H4.05427V16.0806L4.09151 16.0824C4.40543 16.1036 4.64485 16.3768 4.6218 16.6907L4.39833 19.9007L8.65124 17.3274C8.7541 17.2245 8.89598 17.1624 9.05383 17.1624H15.6726C16.2898 17.1624 16.852 16.9106 17.2617 16.5009C17.6696 16.093 17.9232 15.529 17.9232 14.9118V8.94747H19.1079V16.5186C19.17 18.2265 18.473 19.186 15.662 19.3031L9.94236 19.1718L4.13763 21.6317L4.10925 21.6548C3.86982 21.8605 3.5098 21.8321 3.30407 21.5909C3.20298 21.4721 3.15864 21.3267 3.16751 21.183L3.4424 17.221H3.39629C2.46342 17.221 1.6139 16.8396 0.998493 16.2242C0.381307 15.6124 0 14.7629 0 13.83V5.71612C0 4.78325 0.381307 3.93373 0.996719 3.31832C1.61036 2.70291 2.45987 2.3216 3.39452 2.3216ZM14.1332 13.908C14.4507 13.908 14.6865 13.6509 14.6865 13.3547C14.6865 13.0372 14.4294 12.8013 14.1332 12.8013H4.38947C4.07378 12.8013 3.83613 13.0585 3.83613 13.3547C3.83613 13.6704 4.09329 13.908 4.38947 13.908H14.1332ZM8.93677 7.76986C9.25246 7.76986 9.49011 7.51269 9.49011 7.21652C9.49011 6.92034 9.23295 6.66318 8.93677 6.66318H4.38947C4.07378 6.66318 3.83613 6.92034 3.83613 7.21652C3.83613 7.5322 4.09329 7.76986 4.38947 7.76986H8.93677Z" fill="white"/>
</g>
<defs>
<clipPath id="clip0_165_28">
<rect width="20" height="21.793" fill="white"/>
</clipPath>
</defs>
</svg>
