<svg width="20" height="20" viewBox="0 0 20 20" fill="none" xmlns="http://www.w3.org/2000/svg">
<g clip-path="url(#clip0_164_15)">
<path d="M4.28832 8.45567C4.25199 8.15024 4.14364 7.86665 3.98029 7.62264L18.6132 2.73693L17.8451 0.436231C17.7335 0.101895 17.3718 -0.0785362 17.0377 0.032981L1.12028 5.34753C0.786159 5.45905 0.605367 5.82063 0.717028 6.15497L1.09368 7.2829C0.717677 7.63201 0.481812 8.13005 0.481812 8.68245C0.481812 9.39783 0.877276 10.0222 1.46088 10.3496V19.3618C1.46088 19.7144 1.74685 20 2.09914 20H18.8803C19.2324 20 19.5184 19.7143 19.5184 19.3618V8.45567H4.28832ZM13.6149 1.92647L15.5522 1.27964L15.086 3.16397L13.1487 3.8108L13.6149 1.92647ZM8.82845 3.52454L10.7659 2.87771L10.2997 4.76197L8.36241 5.40887L8.82845 3.52454ZM2.39195 9.65568C1.85548 9.65568 1.41893 9.21913 1.41893 8.68252C1.41893 8.14591 1.85548 7.70936 2.39195 7.70936C2.92856 7.70936 3.36511 8.14591 3.36511 8.68252C3.36511 9.21913 2.92856 9.65568 2.39195 9.65568ZM4.04222 5.12262L5.97967 4.47579L5.51349 6.36012L3.57604 7.00702L4.04222 5.12262ZM5.94543 10.6105H3.90295L4.94185 8.97086H6.98434L5.94543 10.6105ZM9.98788 8.97086H12.0304L10.9915 10.6105H8.94897L9.98788 8.97086ZM9.48652 16.895V12.5698L12.931 14.7324L9.48652 16.895ZM16.0375 10.6105H13.995L15.0339 8.97086H17.0764L16.0375 10.6105Z" fill="white"/>
</g>
<defs>
<clipPath id="clip0_164_15">
<rect width="20" height="20" fill="white"/>
</clipPath>
</defs>
</svg>
