<svg width="20" height="20" viewBox="0 0 20 20" fill="none" xmlns="http://www.w3.org/2000/svg">
<g clip-path="url(#clip0_164_23)">
<path d="M10 0.199951C4.892 0.199951 0.75 4.31995 0.75 9.40195C0.75 11.288 1.322 13.042 2.3 14.502C2.3 15.968 2.14 17.424 2.096 18.886C2.09 19.114 2.094 19.33 2.138 19.556C2.17 19.718 2.37 19.816 2.486 19.8C2.682 19.774 2.904 19.712 2.902 19.712C4.332 19.234 5.828 18.722 7.224 18.182C8.1 18.456 9.032 18.604 9.998 18.604C15.106 18.604 19.248 14.484 19.248 9.40195C19.248 4.31995 15.108 0.199951 10 0.199951ZM10 17.632C9.176 17.632 8.38 17.51 7.63 17.286L7.628 17.29C7.628 17.29 7.602 17.28 7.558 17.264C7.544 17.26 7.532 17.256 7.518 17.252C7.398 17.216 7.206 17.172 7.086 17.218C5.75 17.752 4.388 18.212 3.022 18.656C3.1 17.262 3.164 15.864 3.27 14.472C3.278 14.38 3.272 14.186 3.154 13.976C3.128 13.938 3.102 13.898 3.076 13.858L3.074 13.856C2.246 12.572 1.766 11.044 1.766 9.40395C1.77 4.85595 5.456 1.17195 10 1.17195C14.544 1.17195 18.23 4.85795 18.23 9.40195C18.23 13.946 14.544 17.632 10 17.632Z" fill="white"/>
<path d="M9.68594 13.136C9.02794 13.136 8.49194 13.67 8.49194 14.33C8.49194 14.99 9.02594 15.524 9.68594 15.524C10.3439 15.524 10.8799 14.99 10.8799 14.33C10.8799 13.67 10.3459 13.136 9.68594 13.136ZM9.68594 14.814C9.41794 14.814 9.20194 14.598 9.20194 14.33C9.20194 14.062 9.41794 13.846 9.68594 13.846C9.95394 13.846 10.1699 14.062 10.1699 14.33C10.1699 14.596 9.95394 14.814 9.68594 14.814Z" fill="white"/>
<path d="M12.84 5.53795C12.434 4.50595 11.476 4.16995 10.812 4.06395C8.74598 3.73195 6.90598 4.63195 6.96398 6.95795C6.97998 7.59595 7.50198 8.10795 8.14398 8.10795C8.74398 8.10795 9.23798 7.66195 9.31398 7.08195C9.31598 7.06395 9.31798 7.04595 9.31998 7.02995C9.33598 6.86995 9.35798 6.60195 9.46398 6.48395C9.66398 6.26195 10.218 6.25395 10.464 6.34195C10.686 6.42195 10.78 6.60795 10.82 6.76595C10.856 7.12195 10.786 7.40195 10.602 7.72195C10.334 8.16395 10.094 8.34795 9.70998 8.59995C9.24798 8.90195 9.01798 9.06595 8.76998 9.34795C8.57198 9.55995 8.52798 9.81195 8.52998 10.1239C8.52998 10.1259 8.52998 10.1319 8.52998 10.1359V10.1439C8.52998 10.1479 8.52998 10.1499 8.52998 10.1519C8.53598 10.6059 8.54398 11.3919 8.54798 11.6319C8.54798 11.6799 8.54998 11.7119 8.56398 11.7579C8.70798 12.2299 9.14598 12.5739 9.66598 12.5739C10.192 12.5739 10.634 12.2219 10.772 11.7419C10.784 11.6979 10.786 11.6559 10.788 11.6099L10.846 10.4219C12.332 9.32395 12.784 8.34595 12.784 8.34595C12.848 8.21795 12.9 8.09395 12.946 7.95995C13.216 7.16795 13.14 6.30195 12.84 5.53795ZM12.016 8.17795C11.514 8.89595 10.95 9.34195 10.328 9.90195C10.152 10.0539 10.124 10.1899 10.114 10.4179L10.084 11.4199C10.084 11.4219 10.084 11.4239 10.084 11.4239C10.084 11.6539 9.89798 11.8399 9.66798 11.8399C9.43798 11.8399 9.25198 11.6539 9.25198 11.4239C9.25198 11.4219 9.25198 11.4199 9.25198 11.4199L9.25598 10.1719C9.25598 10.1719 9.25598 10.1219 9.25598 10.1119C9.26398 9.95395 9.31998 9.83795 9.42798 9.72995C10.036 9.12195 11.008 8.77395 11.38 7.91595C11.58 7.45395 11.652 6.88395 11.48 6.39995C11.322 5.96195 10.982 5.68195 10.52 5.61795C10.164 5.56795 9.83398 5.55595 9.46998 5.63795C9.42598 5.64795 9.38398 5.65595 9.33998 5.66995C9.01198 5.76995 8.79798 6.03795 8.67998 6.34795C8.59998 6.55395 8.56998 6.76795 8.56198 6.98795C8.56198 7.16395 8.45398 7.31395 8.29998 7.37595C8.25198 7.39395 8.19998 7.40595 8.14598 7.40595C8.09198 7.40595 8.03998 7.39595 7.99198 7.37595C7.83798 7.31395 7.72998 7.16395 7.72998 6.98795C7.72998 6.98595 7.72998 6.98395 7.72998 6.98395C7.73398 6.47195 7.77198 6.03595 8.04598 5.57795C8.43598 4.92395 9.38398 4.70795 10.09 4.75395C10.566 4.78395 11.042 4.86795 11.458 5.11995C11.92 5.39995 12.218 5.96395 12.314 6.47595C12.39 7.04595 12.346 7.70395 12.016 8.17795Z" fill="white"/>
</g>
<defs>
<clipPath id="clip0_164_23">
<rect width="20" height="20" fill="white"/>
</clipPath>
</defs>
</svg>
