<svg width="20" height="20" viewBox="0 0 20 20" fill="none" xmlns="http://www.w3.org/2000/svg">
<g clip-path="url(#clip0_162_13)">
<path d="M0 10C0 15.5234 4.47656 20 10 20C15.5234 20 20 15.5234 20 10C20 4.47656 15.5234 0 10 0C7.96094 0 6.12109 0.695313 4.59375 1.76563C3.0625 2.83984 1.83203 4.28516 0.941406 5.83594L2.38672 6.66406C3.16406 5.30078 4.25 4.03906 5.54688 3.13281C6.84375 2.22656 8.33984 1.67188 9.99609 1.66797C12.3008 1.66797 14.3789 2.59766 15.8906 4.10937C17.3984 5.62109 18.332 7.69922 18.332 10.0039C18.332 12.3086 17.4023 14.3867 15.8906 15.8945C14.3789 17.4023 12.3008 18.3359 9.99609 18.3359C7.69141 18.3359 5.61328 17.4062 4.10156 15.8945C2.59766 14.3828 1.66797 12.3047 1.66797 10H0ZM0 0.832031V7.5H6.66797V5.83203H1.66797V0.832031H0ZM13.9219 13.5781L10.832 10.4883V5H9.16406V11.1797L12.7422 14.7578L13.9219 13.5781Z" fill="white"/>
</g>
<defs>
<clipPath id="clip0_162_13">
<rect width="20" height="20" fill="white"/>
</clipPath>
</defs>
</svg>
