<svg width="20" height="20" viewBox="0 0 20 20" fill="none" xmlns="http://www.w3.org/2000/svg">
<g clip-path="url(#clip0_159_2)">
<path d="M19.6643 10.9162L16.6332 7.88506V4.38363C16.6332 3.75053 16.1202 3.23744 15.4861 3.23744C14.8535 3.23744 14.3405 3.75053 14.3405 4.38363V5.5924L12.0836 3.33542C10.9678 2.2202 9.02771 2.22218 7.91442 3.33744L0.335548 10.9162C-0.111849 11.3644 -0.111849 12.0898 0.335548 12.5374C0.783148 12.9856 1.50992 12.9856 1.95736 12.5374L9.53551 4.95848C9.78238 4.7129 10.2175 4.7129 10.4631 4.95776L18.0425 12.5374C18.2673 12.7615 18.5603 12.873 18.8532 12.873C19.1468 12.873 19.4403 12.7614 19.6643 12.5374C20.1119 12.0898 20.1119 11.3645 19.6643 10.9162Z" fill="white"/>
<path d="M10.3981 5.32252C10.1779 5.10245 9.82136 5.10245 9.60182 5.32252L2.93543 11.9869C2.83018 12.0921 2.77051 12.2358 2.77051 12.3857V17.2465C2.77051 18.3871 3.69534 19.3119 4.83592 19.3119H8.13646V14.2004H11.8627V19.3119H15.1633C16.3038 19.3119 17.2287 18.3871 17.2287 17.2465V12.3857C17.2287 12.2358 17.1695 12.0921 17.0637 11.9869L10.3981 5.32252Z" fill="white"/>
</g>
<defs>
<clipPath id="clip0_159_2">
<rect width="20" height="20" fill="white"/>
</clipPath>
</defs>
</svg>
