<svg width="20" height="20" viewBox="0 0 20 20" fill="none" xmlns="http://www.w3.org/2000/svg">
<g clip-path="url(#clip0_162_22)">
<path d="M19.596 12.632C19.596 11.954 19.368 11.436 18.92 11.136C19.192 10.98 19.592 10.204 19.592 9.51795C19.566 8.38595 18.492 7.54795 16.874 7.54795H12.584C13.318 5.50595 13.18 2.75195 12.258 1.28195C11.704 0.397951 11.036 0.199951 10.574 0.199951C9.01798 0.199951 8.96598 1.73195 8.96598 2.25395C8.96598 3.99595 8.71998 4.79195 8.41198 5.52395C8.16798 5.99795 6.67798 7.55795 5.15598 7.55795H2.30198C1.19998 7.55795 0.401978 8.49995 0.401978 9.83995L1.14198 17.816C1.22998 19.044 1.82198 19.788 3.00798 19.788C3.00798 19.788 3.59798 19.792 4.03998 19.792C4.26598 19.792 4.47598 19.79 4.59998 19.788C4.96598 19.776 5.26598 19.536 5.53198 19.336C5.71998 19.194 5.86998 19.072 6.00398 19.072C6.06398 19.072 6.40998 19.274 6.83598 19.458C7.26798 19.646 7.95598 19.8 8.61398 19.8H14.584C16.584 19.8 17.544 19.034 17.546 17.758C17.546 17.382 17.46 17.158 17.254 16.864C18.058 16.668 18.77 16.152 18.77 15.262C18.77 14.932 18.618 14.402 18.41 14.262C18.804 14.16 19.598 13.444 19.596 12.632ZM4.57198 18.984C4.21398 18.996 2.93198 18.984 2.92398 18.984C2.46398 18.984 2.05598 18.542 1.95198 17.946L1.21198 9.65595C1.21198 9.03595 1.69998 8.35595 2.35398 8.35595V8.35995L5.15598 8.36795C5.20398 8.36795 5.25198 8.36195 5.29998 8.35995V18.502C5.16998 18.594 5.04798 18.684 4.96198 18.75C4.84398 18.838 4.64398 18.976 4.57198 18.984ZM17.658 13.72H17.55L17.56 14.46C17.646 14.494 17.968 14.592 17.968 15.236C17.968 15.926 17.082 16.202 16.334 16.202H16.336L16.324 16.908C16.626 16.978 16.738 17.248 16.738 17.682C16.738 18.44 16.134 18.986 14.566 18.986H8.38598C8.08998 18.986 7.48998 18.81 7.14398 18.64C6.81798 18.48 6.29598 18.178 6.11398 18.078V8.22595C7.66798 7.78595 8.94998 6.41795 9.27398 5.78595C9.62598 4.94995 9.80398 4.07595 9.80398 2.15795C9.80398 1.20595 10.146 1.07795 10.512 1.07795C10.834 1.07795 11.346 1.43995 11.606 1.85595C12.374 3.07795 12.554 5.71395 11.598 7.68795L11.434 8.36995L16.912 8.36795C17.844 8.41995 18.782 8.80995 18.782 9.51195L18.776 9.73195C18.778 9.73995 18.752 10.342 18.44 10.606C18.178 10.828 17.966 10.836 17.966 10.836L17.96 11.564C17.96 11.564 18.276 11.608 18.44 11.724C18.688 11.898 18.8 12.228 18.788 12.588C18.772 13.042 18.084 13.72 17.658 13.72Z" fill="white"/>
</g>
<defs>
<clipPath id="clip0_162_22">
<rect width="20" height="20" fill="white"/>
</clipPath>
</defs>
</svg>
