<svg width="24" height="24" viewBox="0 0 24 24" fill="none" xmlns="http://www.w3.org/2000/svg">
<g clip-path="url(#clip0_164_2)">
<path d="M4.91017 5.33853C4.66117 5.35218 4.41697 5.46779 4.24544 5.678C2.83676 7.40336 1.98999 9.60398 1.98999 12C1.98999 14.396 2.83676 16.5967 4.24544 18.322C4.58942 18.7424 5.22109 18.7807 5.60511 18.3967C5.9318 18.07 5.96389 17.5484 5.67087 17.1916C4.5088 15.7766 3.80999 13.9683 3.80999 12C3.80999 10.0317 4.5088 8.22431 5.67087 6.81017C5.96389 6.45345 5.9318 5.93182 5.60511 5.60513C5.4131 5.41312 5.15916 5.32488 4.91017 5.33853ZM19.0898 5.33853C18.8408 5.32488 18.5869 5.41312 18.3949 5.60513C18.0682 5.93182 18.0361 6.45345 18.3291 6.81017C19.4912 8.22431 20.19 10.0317 20.19 12C20.19 13.9683 19.4912 15.7757 18.3291 17.1899C18.0361 17.5466 18.0682 18.0682 18.3949 18.3949C18.7789 18.7789 19.4115 18.7434 19.7545 18.322C21.1632 16.5976 22.01 14.396 22.01 12C22.01 9.60398 21.1632 7.40336 19.7545 5.678C19.583 5.46779 19.3388 5.35218 19.0898 5.33853ZM7.48909 7.92634C7.23668 7.94045 6.99209 8.05799 6.83147 8.28003C6.07617 9.32744 5.62999 10.6132 5.62999 12C5.62999 13.3869 6.07617 14.6726 6.83147 15.72C7.1527 16.1641 7.80704 16.193 8.1947 15.8053L8.19825 15.8018C8.51766 15.4823 8.54118 14.9866 8.28001 14.618C7.75767 13.8773 7.44999 12.9737 7.44999 12C7.44999 11.0263 7.75767 10.1227 8.28001 9.38199C8.54027 9.01253 8.51766 8.51769 8.19825 8.19828L8.1947 8.19472C8.00087 8.00089 7.7415 7.91224 7.48909 7.92634ZM16.5109 7.92634C16.2585 7.91224 15.9991 8.00089 15.8053 8.19472L15.8017 8.19828C15.4823 8.51769 15.4588 9.01344 15.72 9.38199C16.2423 10.1227 16.55 11.0263 16.55 12C16.55 12.9737 16.2423 13.8773 15.72 14.618C15.4597 14.9875 15.4823 15.4823 15.8017 15.8018L15.8053 15.8053C16.1929 16.193 16.8482 16.1641 17.1685 15.72C17.9247 14.6735 18.37 13.3869 18.37 12C18.37 10.6132 17.9238 9.32744 17.1685 8.28003C17.0079 8.05799 16.7633 7.94045 16.5109 7.92634ZM12 9.27001C10.4923 9.27001 9.26999 10.4923 9.26999 12C9.26999 13.5078 10.4923 14.73 12 14.73C13.5077 14.73 14.73 13.5078 14.73 12C14.73 10.4923 13.5077 9.27001 12 9.27001Z" fill="white"/>
</g>
<defs>
<clipPath id="clip0_164_2">
<rect width="24" height="24" fill="white"/>
</clipPath>
</defs>
</svg>
