<svg width="20" height="20" viewBox="0 0 20 20" fill="none" xmlns="http://www.w3.org/2000/svg">
<path d="M9.98879 15.6895C6.47343 15.6895 3.61316 12.8294 3.61316 9.31387C3.61316 8.93803 3.91787 8.63354 4.29349 8.63354C4.66932 8.63354 4.97381 8.93825 4.97381 9.31387C4.97403 12.0791 7.22357 14.3288 9.98879 14.3288C12.7538 14.3288 15.0035 12.0791 15.0035 9.31409C15.0035 8.93825 15.308 8.63376 15.6839 8.63376C16.0597 8.63376 16.3642 8.93847 16.3642 9.31409C16.3644 12.8294 13.5041 15.6895 9.98879 15.6895Z" fill="white"/>
<path d="M9.98878 13.4438C7.7309 13.4438 5.88354 11.5964 5.88354 9.33852V4.2151C5.88354 1.95722 7.7309 0.109863 9.98878 0.109863C12.2467 0.109863 14.094 1.95722 14.094 4.2151V9.3383C14.094 11.5962 12.2467 13.4438 9.98878 13.4438Z" fill="white"/>
<path d="M9.9888 19.6949C9.61296 19.6949 9.30847 19.3904 9.30847 19.0146V15.1818C9.30847 14.806 9.61318 14.5015 9.9888 14.5015C10.3646 14.5015 10.6691 14.806 10.6691 15.1818V19.0146C10.6691 19.3904 10.3646 19.6949 9.9888 19.6949Z" fill="white"/>
<path d="M12.2831 19.8677H7.69449C7.31865 19.8677 7.01416 19.5632 7.01416 19.1874C7.01416 18.8116 7.31887 18.5071 7.69449 18.5071H12.2829C12.6587 18.5071 12.9632 18.8116 12.9632 19.1874C12.9632 19.5632 12.659 19.8677 12.2831 19.8677Z" fill="white"/>
</svg>
