<svg width="20" height="15" viewBox="0 0 20 15" fill="none" xmlns="http://www.w3.org/2000/svg">
<g clip-path="url(#clip0_164_17)">
<path d="M19.1172 10.7875L10.6909 5.78215V4.93018C10.6909 3.96355 9.64346 3.54401 9.64346 3.54401C8.96551 3.21121 9.02611 2.49408 9.02611 2.49408C9.02611 1.65241 9.7753 1.38231 10.1089 1.38231C10.6696 1.38231 11.2195 1.69535 11.2775 2.4112C11.3688 3.5337 12.6321 3.24857 12.6321 2.34679C12.6321 1.49481 11.8599 0 10.0991 0C8.19498 0 7.64844 1.87356 7.64844 2.46573C7.64844 2.91276 7.71841 3.32544 7.99232 3.79608C8.45822 4.59652 9.38959 4.72234 9.38959 5.25225V5.78215L0.877909 10.8064C0.0382627 11.3054 -0.113624 12.3673 0.0685583 13.0119C0.245201 13.6367 0.868097 14.3813 1.98934 14.3813H1.99189C1.99189 14.3813 16.4451 14.3813 17.9026 14.3813C19.1573 14.3813 19.7299 13.6573 19.9065 13.0325C20.0887 12.3879 20.0887 11.3904 19.1172 10.7875ZM17.9226 12.9762H2.0145C1.49655 12.9964 1.17655 12.2664 1.68855 11.9443L9.98777 7.06698L18.2426 11.9229C18.7546 12.2879 18.4773 12.975 17.9226 12.9762Z" fill="white"/>
</g>
<defs>
<clipPath id="clip0_164_17">
<rect width="20" height="14.3813" fill="white"/>
</clipPath>
</defs>
</svg>
