<svg width="20" height="17" viewBox="0 0 20 17" fill="none" xmlns="http://www.w3.org/2000/svg">
<g clip-path="url(#clip0_164_8)">
<path fill-rule="evenodd" clip-rule="evenodd" d="M5.75195 2.68555H17.5928V7.68717H5.75195V2.68555ZM3.81185 14.9251C3.7028 15.2897 3.54655 15.5843 3.35612 15.8138H17.7555H17.762C18.2813 15.7845 18.6686 15.6462 18.9274 15.4004C19.1813 15.1595 19.3229 14.7998 19.3538 14.3229V0.646159H3.96484V13.6768C3.96484 14.2301 3.97135 14.3913 3.81185 14.9251ZM2.1403 16.46C2.06706 16.4648 1.99219 16.4648 1.91895 16.4616C1.62272 16.4437 1.33138 16.3525 1.06771 16.1979C0.489909 15.8577 0.0439453 15.2067 0.00325521 14.3555C0.0016276 14.3424 0 14.3278 0 14.3148V2.85645C0 2.67741 0.144857 2.53418 0.322266 2.53418H3.31868V0.322266C3.31868 0.143229 3.46354 0 3.64095 0H19.6761C19.8551 0 19.9984 0.144857 19.9984 0.322266V14.3311C19.9984 14.349 19.9967 14.3652 19.9951 14.3815C19.9512 15.0163 19.7428 15.5127 19.3701 15.8675C18.999 16.2207 18.4749 16.4176 17.7962 16.4567C17.7832 16.4583 17.7686 16.46 17.7539 16.46H2.1403ZM1.96126 15.8187C1.97754 15.8154 1.99544 15.8138 2.01335 15.8138H2.13053C2.25911 15.8008 2.38444 15.765 2.50163 15.7031C3.2194 15.3271 3.31868 14.4092 3.31868 13.6816V3.17871H0.646159V14.3132C0.646159 14.3164 0.646159 14.3213 0.646159 14.3245C0.677083 14.9365 0.991211 15.402 1.39648 15.6413C1.57227 15.7454 1.76432 15.8057 1.95475 15.8171L1.96126 15.8187ZM6.65202 3.93066H7.28678L8.11198 5.31738V3.93066H8.75326V6.44043H8.11198L7.29167 5.06185V6.44043H6.65365V3.93066H6.65202ZM9.31152 3.93066H11.1296V4.46777H9.99349V4.86816H11.0466V5.37923H9.99349V5.87402H11.1637V6.44206H9.31152V3.93066ZM11.4128 3.93066H12.0573L12.2884 5.33203L12.6286 3.93066H13.2682L13.61 5.33366L13.8428 3.93066H14.4857L14.0007 6.44043H13.335L12.9492 4.86003L12.5651 6.44043H11.8994L11.4128 3.93066ZM14.6989 5.61198L15.3434 5.56641C15.3564 5.68522 15.3857 5.77637 15.4281 5.83822C15.498 5.93913 15.5973 5.98958 15.7275 5.98958C15.8236 5.98958 15.8984 5.96354 15.9505 5.91146C16.0026 5.85938 16.0286 5.79915 16.0286 5.73079C16.0286 5.66569 16.0042 5.6071 15.9538 5.55664C15.9049 5.50456 15.7878 5.45736 15.6071 5.41178C15.3092 5.33529 15.0977 5.23438 14.9707 5.10742C14.8421 4.98047 14.7786 4.81934 14.7786 4.62402C14.7786 4.49544 14.8112 4.37337 14.8763 4.25944C14.9414 4.14388 15.0407 4.05436 15.1709 3.98926C15.3027 3.92415 15.4834 3.8916 15.7113 3.8916C15.9928 3.8916 16.2061 3.95182 16.3542 4.07064C16.5023 4.18945 16.5885 4.37988 16.6178 4.6403L15.9798 4.68425C15.9635 4.57031 15.9277 4.4873 15.8724 4.43522C15.8171 4.38314 15.7422 4.3571 15.6462 4.3571C15.568 4.3571 15.5078 4.37663 15.4671 4.41406C15.4264 4.4515 15.4069 4.4987 15.4069 4.55404C15.4069 4.5931 15.4232 4.62891 15.4557 4.66146C15.4867 4.69401 15.5632 4.72493 15.682 4.75423C15.9782 4.82747 16.1914 4.90072 16.3184 4.97559C16.4469 5.05046 16.5397 5.14323 16.5983 5.25391C16.6569 5.36458 16.6862 5.48828 16.6862 5.625C16.6862 5.78613 16.6471 5.93424 16.569 6.07096C16.4909 6.20605 16.3818 6.31022 16.2419 6.38021C16.1019 6.4502 15.9261 6.486 15.7129 6.486C15.3385 6.486 15.0798 6.403 14.9365 6.23861C14.7998 6.07259 14.7184 5.86426 14.6989 5.61198ZM5.82682 9.90397C5.64779 9.90397 5.50456 9.75911 5.50456 9.58171C5.50456 9.4043 5.64941 9.25944 5.82682 9.25944H10.7503C10.9277 9.25944 11.0726 9.4043 11.0726 9.58171C11.0726 9.75911 10.9277 9.90397 10.7503 9.90397H5.82682ZM12.1631 9.90397C11.9841 9.90397 11.8392 9.75911 11.8392 9.58008C11.8392 9.40104 11.9841 9.25619 12.1631 9.25619H17.474C17.653 9.25619 17.7979 9.40104 17.7979 9.58008C17.7979 9.75911 17.653 9.90397 17.474 9.90397H12.1631ZM12.1631 11.7773C11.9841 11.7773 11.8392 11.6325 11.8392 11.4535C11.8392 11.2744 11.9841 11.1296 12.1631 11.1296H17.474C17.653 11.1296 17.7979 11.2744 17.7979 11.4535C17.7979 11.6325 17.653 11.7773 17.474 11.7773H12.1631ZM12.1631 13.6507C11.9841 13.6507 11.8392 13.5059 11.8392 13.3268C11.8392 13.1478 11.9841 13.0029 12.1631 13.0029H17.474C17.653 13.0029 17.7979 13.1478 17.7979 13.3268C17.7979 13.5059 17.653 13.6507 17.474 13.6507H12.1631ZM5.82682 13.6507C5.64779 13.6507 5.50456 13.5059 5.50456 13.3285C5.50456 13.151 5.64941 13.0062 5.82682 13.0062H10.7503C10.9277 13.0062 11.0726 13.151 11.0726 13.3285C11.0726 13.5059 10.9277 13.6507 10.7503 13.6507H5.82682ZM5.98307 11.7773C5.80404 11.7773 5.66081 11.6325 5.66081 11.4551C5.66081 11.2777 5.80566 11.1328 5.98307 11.1328H10.9066C11.0856 11.1328 11.2288 11.2777 11.2288 11.4551C11.2288 11.6325 11.084 11.7773 10.9066 11.7773H5.98307Z" fill="white"/>
</g>
<defs>
<clipPath id="clip0_164_8">
<rect width="20" height="16.4648" fill="white"/>
</clipPath>
</defs>
</svg>
