<svg width="20" height="20" viewBox="0 0 20 20" fill="none" xmlns="http://www.w3.org/2000/svg">
<path d="M3.17397 19.7999C2.97997 19.7999 2.82397 19.6439 2.82397 19.4499V11.7439C2.82397 11.5499 2.98197 11.3939 3.17397 11.3939C3.36797 11.3939 3.52397 11.5499 3.52397 11.7439V19.4499C3.52397 19.6439 3.36797 19.7999 3.17397 19.7999Z" fill="white"/>
<path d="M5.65396 12.486C3.50596 12.486 2.92796 11.952 2.85996 11.89C2.78596 11.824 2.82396 11.728 2.82396 11.63V1.12195C2.82396 0.995951 2.81196 0.879951 2.92196 0.817951C3.03196 0.755951 3.12596 0.757951 3.23396 0.821951C3.24196 0.825951 4.13796 1.34395 6.06996 1.34395C7.24596 1.34395 8.53996 1.15595 9.93996 0.783951C11.4 0.395951 12.73 0.199951 13.904 0.199951C15.964 0.199951 16.924 0.809951 16.96 0.835951C17.052 0.901951 17.184 1.00795 17.184 1.12195V11.63C17.184 11.778 17.01 11.914 16.87 11.962C16.73 12.012 16.534 11.854 16.44 11.854H16.42C16.416 11.854 15.972 11.474 14.302 11.474C13.18 11.474 11.76 11.64 10.09 11.972C8.37996 12.314 6.88196 12.486 5.65396 12.486ZM3.52396 11.434C3.52396 11.55 4.34796 11.786 5.73396 11.786C6.91596 11.786 8.32196 11.618 9.99196 11.286C11.706 10.946 13.228 10.774 14.396 10.774C15.39 10.774 15.786 10.9 16.486 11.042V1.32795C16.134 1.18595 15.338 0.899951 13.98 0.899951C12.866 0.899951 11.55 1.08795 10.15 1.45995C8.69196 1.84595 7.38596 2.04195 6.14996 2.04195C4.85996 2.04195 3.87396 1.82795 3.52396 1.64995V11.434Z" fill="white"/>
</svg>
