<svg width="16" height="21" viewBox="0 0 16 21" fill="none" xmlns="http://www.w3.org/2000/svg">
<g clip-path="url(#clip0_168_7)">
<path d="M1.74303 20.094C1.40058 20.093 1.06714 19.9842 0.79003 19.783C0.563663 19.6174 0.379887 19.4004 0.253836 19.1498C0.127786 18.8993 0.0630326 18.6224 0.0649936 18.3419C0.0649936 16.0479 0.0250288 7.60296 0.00102877 3.71896C-0.00861021 2.7107 0.381927 1.73973 1.08703 1.01895C1.40308 0.695712 1.78039 0.438747 2.19695 0.263092C2.61351 0.0874372 3.06091 -0.00336001 3.51299 -0.00402832H11.813C12.7677 0.0219051 13.6731 0.424929 14.3313 1.11685C14.9895 1.80877 15.3468 2.73324 15.325 3.68796C15.325 7.55896 15.325 16.7249 15.302 18.2209C15.2981 18.4954 15.2305 18.7652 15.1045 19.009C14.9786 19.2528 14.7976 19.464 14.576 19.6259C14.3695 19.7756 14.1306 19.8747 13.8787 19.915C13.6268 19.9553 13.369 19.9358 13.126 19.858C13.0462 19.8324 12.9719 19.792 12.907 19.739C10.835 18.045 8.52702 16.21 7.72802 15.644C6.92802 16.223 4.58 18.127 2.479 19.883C2.41597 19.9357 2.34375 19.9764 2.26598 20.003C2.09772 20.0614 1.92114 20.0921 1.74303 20.094ZM3.51202 1.32996C3.23548 1.33154 2.96201 1.38816 2.70757 1.49649C2.45313 1.60482 2.22282 1.76272 2.03002 1.96097C1.57467 2.42933 1.32303 3.05875 1.33001 3.71194C1.35301 7.59694 1.39603 16.047 1.39403 18.344C1.39136 18.413 1.4055 18.4817 1.43529 18.5441C1.46509 18.6064 1.50959 18.6606 1.56499 18.702C1.61843 18.7425 1.68395 18.764 1.75103 18.763C7.20903 14.202 7.45101 14.2069 7.73601 14.2079C8.00901 14.2079 8.24504 14.214 13.623 18.608C13.6877 18.6075 13.7505 18.5861 13.802 18.547C13.8559 18.5066 13.8996 18.454 13.9293 18.3935C13.959 18.333 13.974 18.2663 13.973 18.1989C14.001 16.7149 13.999 7.55896 13.996 3.69196C14.018 3.09006 13.801 2.50391 13.3924 2.0614C12.9838 1.6189 12.4167 1.35596 11.815 1.32996H3.51202Z" fill="white"/>
</g>
<defs>
<clipPath id="clip0_168_7">
<rect width="15.33" height="20.094" fill="white"/>
</clipPath>
</defs>
</svg>
