<svg width="20" height="20" viewBox="0 0 20 20" fill="none" xmlns="http://www.w3.org/2000/svg">
<g clip-path="url(#clip0_165_35)">
<path d="M18.722 8.24604C17.208 7.72404 16.606 6.38004 17.192 4.86804C17.464 4.17004 17.504 3.59004 16.896 3.05204C16.314 2.53404 15.818 2.21004 14.964 2.65404C13.52 3.40204 12.044 2.65604 11.352 1.16604C11.164 0.762036 10.542 0.420036 10.07 0.334036C9.38399 0.208036 8.70199 0.362036 8.35199 1.18804C7.57599 3.02204 6.55999 3.47204 4.74399 2.83404C4.02399 2.58204 3.47199 2.74604 2.96599 3.32004C2.47799 3.87404 2.28199 4.40004 2.62399 5.13804C3.28599 6.55004 2.77599 8.01004 1.37999 8.56404C0.535988 8.90004 0.185988 9.38404 0.199988 10.29C0.213988 11.196 0.669988 11.564 1.46599 11.828C2.80599 12.278 3.38399 13.632 2.75599 14.912C2.34599 15.748 2.43399 16.356 3.06799 16.982C3.68599 17.59 4.28599 17.736 5.12199 17.344C6.58799 16.656 7.92999 17.204 8.54999 18.706C8.85599 19.446 9.30799 19.768 10.144 19.688C10.966 19.786 11.47 19.39 11.778 18.514C11.942 18.046 12.348 17.592 12.762 17.304C13.554 16.75 14.438 16.794 15.322 17.198C16.026 17.52 16.582 17.252 17.088 16.694C17.556 16.174 17.76 15.704 17.452 14.982C16.724 13.29 17.14 12.204 18.85 11.392C19.67 11 19.804 10.384 19.802 9.59204C19.796 8.82404 19.404 8.48004 18.722 8.24604ZM9.99999 13.072C8.34599 13.072 7.00399 11.696 7.00399 10.002C7.00399 8.30604 8.34799 6.93004 9.99999 6.93004C11.656 6.93004 12.998 8.30604 12.998 10.002C12.996 11.696 11.654 13.072 9.99999 13.072Z" fill="white"/>
</g>
<defs>
<clipPath id="clip0_165_35">
<rect width="20" height="20" fill="white"/>
</clipPath>
</defs>
</svg>
