<svg width="20" height="18" viewBox="0 0 20 18" fill="none" xmlns="http://www.w3.org/2000/svg">
<path d="M19.574 7.41802L11.632 0.900018C11.448 0.750018 11.196 0.722018 10.982 0.822018C10.768 0.924018 10.632 1.13802 10.632 1.37602L10.614 4.81402C7.054 4.92802 4.298 6.07202 2.512 8.16202C-0.397998 11.564 0.252002 16.51 0.282002 16.716C0.328002 17.016 0.548002 17.236 0.850002 17.236C0.856002 17.236 0.864002 17.236 0.872002 17.236C1.182 17.226 1.378 16.986 1.404 16.676C1.424 16.45 2.034 10.952 10.616 10.958L10.634 14.474C10.634 14.71 10.77 14.926 10.986 15.028C11.198 15.13 11.454 15.098 11.636 14.948L19.578 8.36802C19.72 8.25202 19.802 8.07802 19.802 7.89402C19.8 7.70802 19.716 7.53402 19.574 7.41802ZM11.858 13.176V10.336C11.858 10.174 11.794 10.018 11.678 9.90202C11.562 9.78802 11.408 9.72402 11.246 9.72402H11.244C5.116 9.72802 2.774 11.798 1.436 13.624C1.632 12.16 2.202 10.396 3.446 8.95402C5.098 7.03802 7.76 6.02802 11.246 6.02802C11.584 6.02802 11.858 5.75402 11.858 5.41602V2.66402L18.22 7.89602L11.858 13.176Z" fill="white"/>
</svg>
