<svg width="20" height="25" viewBox="0 0 20 25" fill="none" xmlns="http://www.w3.org/2000/svg">
<g clip-path="url(#clip0_160_2)">
<path d="M7.50133 15.7999V9.1785L13.7479 12.4892L7.50133 15.7999ZM17.2085 10.3903C16.2466 9.99056 15.7093 9.76568 15.7093 9.76568L17.4959 8.8162C19.7946 7.61686 20.6566 4.78091 19.4448 2.49466C18.233 0.208407 15.397 -0.666114 13.1108 0.545723L2.50407 6.16765C0.892447 7.01719 -0.0820207 8.71626 0.00543149 10.5278C0.0928837 12.3018 1.1673 13.8634 2.77892 14.588C2.81639 14.6005 4.2781 15.2127 4.2781 15.2127L2.50407 16.1497C0.217815 17.3615 -0.656707 20.1975 0.555131 22.4837C1.76697 24.77 4.60292 25.6445 6.88917 24.4327L17.5084 18.8107C19.12 17.9612 20.082 16.2621 19.9945 14.4506C19.9071 12.6766 18.8201 11.1025 17.2085 10.3903ZM16.9212 17.7113L6.30199 23.3333C4.6279 24.2203 2.54155 23.5831 1.65453 21.909C0.767515 20.235 1.40467 18.1486 3.07875 17.2616L5.62736 15.9123V14.4006L4.76533 14.0508L3.37859 13.4762C2.14176 12.9639 1.31721 11.7896 1.25475 10.4653C1.19228 9.14103 1.90439 7.89171 3.07875 7.26705L13.6979 1.64512C15.372 0.758107 17.4584 1.39526 18.3454 3.06934C19.2324 4.74343 18.5953 6.82979 16.9212 7.7168L14.3726 9.06607V10.5777L16.6213 11.5022C17.8582 12.0145 18.6827 13.1888 18.7452 14.5131C18.8077 15.8374 18.0955 17.0867 16.9212 17.7113Z" fill="white"/>
</g>
<defs>
<clipPath id="clip0_160_2">
<rect width="20" height="24.9784" fill="white"/>
</clipPath>
</defs>
</svg>
