<svg width="20" height="20" viewBox="0 0 20 20" fill="none" xmlns="http://www.w3.org/2000/svg">
<path d="M3.04777 1.2006C1.84597 1.523 0.85677 2.439 0.42437 3.6262C-0.43303 5.993 1.26717 8.5578 3.80997 8.7264C4.08117 8.7484 4.26437 8.7924 4.29357 8.8584C4.32297 8.917 4.46937 9.2248 4.60857 9.5398C5.42197 11.3204 6.88017 12.4636 8.92477 12.9106L9.12257 12.9546V13.9366V14.9112L8.84417 15.0212C8.52897 15.1458 4.99697 17.7764 4.74777 18.077C4.54257 18.3188 4.53517 18.6046 4.73317 18.7878C4.87977 18.9196 5.07757 18.927 10.002 18.927C14.9264 18.927 15.1242 18.9196 15.2708 18.7878C15.52 18.568 15.4686 18.3042 15.1168 17.9596C14.6186 17.4832 11.4676 15.1384 11.1598 15.0212L10.8814 14.9112V13.9366V12.9546L11.0866 12.918C13.0066 12.515 14.516 11.3572 15.3294 9.6572C15.5126 9.2762 15.6812 8.917 15.7104 8.8584C15.7396 8.7924 15.9228 8.7484 16.194 8.7264C18.0114 8.6092 19.4988 7.2316 19.7626 5.4216C19.9312 4.2784 19.5208 3.0694 18.6854 2.2266C18.1944 1.7282 17.5716 1.3618 16.9268 1.1934C16.2966 1.032 3.65597 1.032 3.04777 1.2006ZM4.05177 4.9232L4.06637 7.4806L3.68537 7.4366C2.84257 7.334 1.96337 6.6306 1.65557 5.8098C1.45037 5.2676 1.45037 4.52 1.65557 3.9852C1.92677 3.245 2.72537 2.5562 3.49497 2.4098C4.07377 2.2924 4.02977 2.08 4.05177 4.9232ZM14.6918 4.9086C14.6918 7.8618 14.6552 8.1622 14.1788 9.1294C13.644 10.1992 12.662 11.0712 11.5262 11.467C10.8154 11.7162 9.68697 11.7748 8.93937 11.6062C7.62037 11.291 6.41857 10.3458 5.83237 9.144C5.34877 8.1548 5.31217 7.8616 5.31217 4.9086V2.3292H10.002H14.6918V4.9086ZM17.0148 2.5856C17.5278 2.8128 18.0188 3.289 18.2606 3.78C18.539 4.3516 18.583 5.2016 18.3558 5.7878C18.0408 6.6306 17.1686 7.334 16.3186 7.4366L15.9376 7.4806V4.9524C15.9376 3.5602 15.9596 2.4024 15.9888 2.3804C16.0694 2.2998 16.6118 2.4098 17.0148 2.5856ZM11.658 16.9116L12.6766 17.681L11.3356 17.703C10.6028 17.7104 9.40097 17.7104 8.66097 17.703L7.32737 17.681L8.19197 17.0216C9.39377 16.1056 9.41577 16.091 10.0826 16.1202L10.6396 16.1422L11.658 16.9116Z" fill="white"/>
</svg>
