<svg width="20" height="20" viewBox="0 0 20 20" fill="none" xmlns="http://www.w3.org/2000/svg">
<path d="M17.736 11.4C17.51 10.634 17.15 9.84195 16.662 9.04395C15.838 7.69395 14.944 6.80395 14.906 6.76795L14.294 6.15395L14.336 7.00995C14.334 7.04795 14.306 7.53195 13.834 8.41795C14.024 7.42995 14.156 6.22195 13.726 4.98195C13.438 4.14995 12.92 3.37395 12.186 2.67395C11.354 1.88195 10.212 1.15595 8.79003 0.519951L8.08203 0.199951L8.34003 0.933951C8.90803 2.55795 8.58203 4.38395 7.37203 6.36195C6.74003 7.39395 6.01803 8.20195 5.62203 8.61195L4.66003 6.94995L4.35203 7.27395C2.50603 9.21995 1.73403 11.218 2.05403 13.212C2.19603 14.102 2.56003 14.99 3.13603 15.85C3.59003 16.528 4.17603 17.192 4.87803 17.822C6.06603 18.888 7.16803 19.486 7.21403 19.51L7.75203 19.8L7.70603 19.19C7.70403 19.176 7.60403 17.792 7.89003 16.202C8.10803 14.994 8.59203 13.45 9.67403 12.446C9.58203 13.73 10.228 14.626 11.012 15.71C11.62 16.552 12.31 17.508 12.876 18.906L13.006 19.23L13.324 19.086C16.024 17.856 17.574 16.202 17.936 14.17C18.09 13.306 18.022 12.372 17.736 11.4ZM17.276 14.056C16.968 15.78 15.65 17.218 13.356 18.332C12.786 17.028 12.104 16.088 11.55 15.32C10.642 14.064 10.044 13.234 10.476 11.762L10.716 10.946L9.98603 11.38C9.19803 11.848 8.55203 12.56 8.06603 13.498C7.68603 14.234 7.40403 15.108 7.22803 16.098C7.04603 17.114 7.01403 18.032 7.01803 18.612C6.60003 18.344 5.97203 17.904 5.32403 17.324C4.29403 16.4 3.00603 14.918 2.71403 13.106C2.44603 11.438 3.05803 9.74395 4.53403 8.06595L5.46803 9.67995L5.77403 9.39995C5.82203 9.35595 6.96003 8.30795 7.93203 6.72595C8.50803 5.78795 8.90403 4.85595 9.10803 3.95795C9.30803 3.08395 9.32603 2.23995 9.16603 1.43795C11.3 2.49995 12.588 3.73595 13.096 5.19995C13.564 6.54995 13.278 7.86595 13.046 8.92195C12.962 9.30595 12.884 9.66795 12.852 9.98595L12.734 11.158L13.45 10.222C14.31 9.09795 14.696 8.25795 14.868 7.71595C15.196 8.09795 15.662 8.68795 16.1 9.40595C16.808 10.57 17.588 12.318 17.276 14.056Z" fill="white"/>
</svg>
