<svg width="76" height="53" viewBox="0 0 76 53" fill="none" xmlns="http://www.w3.org/2000/svg">
<path d="M69.1855 2.4L53.8421 13.3V10C53.8421 5.6 50.5737 2 46.5789 2H10.2632C6.26842 2 3 5.6 3 10V42C3 46.4 6.26842 50 10.2632 50H46.5789C50.5737 50 53.8421 46.4 53.8421 42V38.7L69.1855 49.6C70.9105 50.6 72 48.9 72 47.9V4C72 3 71.0013 1.2 69.1855 2.4ZM50.2105 42C50.2105 44.2 48.5763 46 46.5789 46H10.2632C8.26579 46 6.63158 44.2 6.63158 42V10C6.63158 7.8 8.26579 6 10.2632 6H46.5789C48.5763 6 50.2105 7.8 50.2105 10V42ZM68.3684 44.3L53.8421 34V18L68.3684 7.7V44.3Z" fill="white"/>
</svg>
