<svg width="24" height="24" viewBox="0 0 24 24" fill="none" xmlns="http://www.w3.org/2000/svg">
<path d="M23.2698 13.0312C23.2698 12.9352 23.2698 12.8512 23.2698 12.7671C23.2578 11.7348 22.6696 6.76539 22.3335 5.87713C21.9494 4.85684 21.4213 4.07661 20.7611 3.58447C19.6808 2.78023 18.7685 2.60018 17.6402 2.57617H17.6162C17.136 2.57617 14.0031 2.96028 11.3743 3.32039C8.73357 3.68049 5.43261 4.16063 4.65239 4.44872C3.57207 4.84483 2.70782 5.37299 2.02362 6.04518C0.763256 7.29354 0.60721 8.57792 0.775259 10.2584C0.895294 11.5668 1.6035 16.7043 1.99962 17.8806C2.53977 19.4651 3.59608 20.4254 4.96448 20.5694C5.30058 20.6054 5.62467 20.6294 5.94876 20.6294C7.14911 20.6294 8.10939 20.3774 9.21372 20.0773C10.9542 19.6091 13.1148 19.033 17.5801 19.033H17.6882H17.7122C18.8045 19.033 21.4813 18.7929 22.7056 16.5482C23.3298 15.3479 23.2938 13.8955 23.2698 13.0312Z" fill="#FF0000"/>
<path d="M23.99 13.1152C23.99 13.0192 23.99 12.9232 23.978 12.8272C23.966 11.7228 23.3298 6.44129 22.9817 5.49302C22.5736 4.4007 22.0094 3.58446 21.3012 3.05631C20.1729 2.20406 19.1886 2.02401 18.0003 2H17.9763C17.4601 2 14.1231 2.40812 11.3263 2.79223C8.52951 3.17634 5.02449 3.69249 4.18425 3.99258C3.03191 4.4127 2.10764 4.97687 1.38743 5.69708C0.0430429 7.01746 -0.113003 8.39786 0.0550462 10.1864C0.187085 11.5788 0.931301 17.0404 1.35142 18.2887C1.92759 19.9812 3.04392 20.9895 4.50834 21.1456C4.86845 21.1816 5.20455 21.2056 5.55265 21.2056C6.83702 21.2056 7.84531 20.9295 9.02166 20.6174C10.8702 20.1253 13.1749 19.5011 17.9162 19.5011H18.0363H18.0603C19.2246 19.5011 22.0695 19.249 23.3658 16.8603C24.05 15.588 24.014 14.0395 23.99 13.1152ZM22.3095 16.2962C21.3252 18.1087 19.0086 18.3127 18.0363 18.3127H17.9162C13.0068 18.3127 10.6301 18.9489 8.70957 19.4651C7.56923 19.7652 6.66897 20.0052 5.55265 20.0052C5.25256 20.0052 4.95247 19.9932 4.64038 19.9572C3.39202 19.8252 2.79184 18.7689 2.49176 17.9046C2.13165 16.8483 1.39944 11.6508 1.24339 10.0663C1.07534 8.30183 1.31541 7.44959 2.22768 6.54932C2.82785 5.94915 3.60808 5.48101 4.59237 5.12091C4.79643 5.04889 5.91275 4.7368 11.4824 3.98058C14.6393 3.54845 17.5681 3.21235 17.9883 3.20035C18.9846 3.22436 19.7048 3.35639 20.593 4.02859C21.1092 4.4127 21.5413 5.06089 21.8654 5.92514C22.1295 6.62134 22.7777 11.6628 22.7897 12.8512L22.8017 13.1512C22.8137 13.9555 22.8497 15.2999 22.3095 16.2962Z" fill="black"/>
<path d="M11.5064 14.9157C10.9303 15.3479 10.5462 15.4559 10.2941 15.4559C10.102 15.4559 9.994 15.3959 9.93398 15.3599C9.52586 15.1438 9.42983 14.6277 9.33381 13.9195L9.3218 13.7994C9.27379 13.4273 9.00971 11.2787 8.86567 10.0063L8.75764 9.13006C8.70962 8.79396 8.6376 8.2298 9.04572 7.92971C9.42983 7.65363 9.94598 7.82168 10.1981 7.8937C10.8342 8.09776 14.5193 9.37013 15.7077 9.97031C15.9597 10.0783 16.5119 10.3064 16.5239 10.9666C16.5359 11.5668 16.0678 11.8549 15.8877 11.9509L11.5064 14.9157Z" fill="black"/>
<path d="M9.95801 9.07007C9.95801 9.07007 10.5582 13.9675 10.5702 14.0995C10.6422 14.0515 15.1195 11.0026 15.1195 11.0026C14.0512 10.4865 10.8823 9.37016 9.95801 9.07007Z" fill="white"/>
</svg>
