<svg width="71" height="17" viewBox="0 0 71 17" fill="none" xmlns="http://www.w3.org/2000/svg">
<path d="M22.6051 3.41672C22.3507 2.47184 21.6057 1.72683 20.6608 1.47244C18.9346 1 12.0297 1 12.0297 1C12.0297 1 5.12477 1 3.39855 1.45427C2.47184 1.70866 1.70866 2.47184 1.45427 3.41672C1 5.14294 1 8.72259 1 8.72259C1 8.72259 1 12.3204 1.45427 14.0285C1.70866 14.9733 2.45366 15.7184 3.39855 15.9727C5.14294 16.4452 12.0297 16.4452 12.0297 16.4452C12.0297 16.4452 18.9346 16.4452 20.6608 15.9909C21.6057 15.7365 22.3507 14.9915 22.6051 14.0466C23.0594 12.3204 23.0594 8.74076 23.0594 8.74076C23.0594 8.74076 23.0775 5.14294 22.6051 3.41672Z" fill="#FF0000"/>
<path d="M9.83105 5.41553V12.0297L15.573 8.72261L9.83105 5.41553Z" fill="white"/>
<path d="M33.0351 15.0642C32.599 14.7734 32.2901 14.3192 32.1084 13.6832C31.9267 13.0654 31.8358 12.2295 31.8358 11.212V9.81281C31.8358 8.77707 31.9448 7.94122 32.1447 7.30524C32.3628 6.66926 32.6898 6.21499 33.1259 5.92426C33.5802 5.63353 34.1617 5.48816 34.8885 5.48816C35.5972 5.48816 36.1786 5.63353 36.6147 5.92426C37.0508 6.21499 37.3597 6.68743 37.5596 7.30524C37.7595 7.92305 37.8685 8.7589 37.8685 9.81281V11.212C37.8685 12.2477 37.7777 13.0654 37.5778 13.7014C37.3779 14.3192 37.069 14.7916 36.6329 15.0823C36.1968 15.3731 35.5972 15.5184 34.8522 15.5184C34.089 15.5003 33.4712 15.3549 33.0351 15.0642ZM35.4881 13.5378C35.6153 13.2289 35.6699 12.702 35.6699 11.9933V8.97695C35.6699 8.28646 35.6153 7.77768 35.4881 7.45061C35.361 7.12353 35.1611 6.97817 34.8522 6.97817C34.5614 6.97817 34.3434 7.1417 34.2344 7.45061C34.1072 7.77768 34.0527 8.28646 34.0527 8.97695V11.9933C34.0527 12.702 34.1072 13.2289 34.2344 13.5378C34.3434 13.8467 34.5614 14.0103 34.8703 14.0103C35.1611 14.0103 35.361 13.8649 35.4881 13.5378Z" fill="white"/>
<path d="M66.5784 11.2301V11.7207C66.5784 12.3385 66.5966 12.811 66.6329 13.1199C66.6693 13.4288 66.7419 13.665 66.8691 13.7922C66.9782 13.9375 67.1599 14.0102 67.4143 14.0102C67.7413 14.0102 67.9594 13.883 68.0866 13.6286C68.2138 13.3743 68.2683 12.9563 68.2865 12.3567L70.158 12.4657C70.1762 12.5566 70.1762 12.6656 70.1762 12.811C70.1762 13.7013 69.94 14.3736 69.4494 14.8097C68.9588 15.2458 68.2683 15.4639 67.3779 15.4639C66.3058 15.4639 65.5608 15.1187 65.1247 14.4463C64.6886 13.774 64.4706 12.7383 64.4706 11.321V9.63107C64.4706 8.1774 64.6886 7.1235 65.1429 6.45118C65.5972 5.77886 66.3603 5.45178 67.4324 5.45178C68.1774 5.45178 68.7589 5.59715 69.1587 5.86971C69.5584 6.14227 69.831 6.57837 69.9945 7.14167C70.158 7.72313 70.2307 8.52265 70.2307 9.54021V11.1938H66.5784V11.2301ZM66.851 7.15984C66.7419 7.3052 66.6693 7.52325 66.6329 7.83216C66.5966 8.14106 66.5784 8.6135 66.5784 9.24948V9.93997H68.1774V9.24948C68.1774 8.63167 68.1593 8.15923 68.1229 7.83216C68.0866 7.50508 67.9957 7.28703 67.8867 7.15984C67.7777 7.03264 67.596 6.95996 67.3779 6.95996C67.1235 6.94179 66.96 7.01447 66.851 7.15984Z" fill="white"/>
<path d="M27.7292 11.0484L25.2579 2.09021H27.4203L28.2925 6.1423C28.5105 7.14169 28.674 7.99572 28.7831 8.70438H28.8376C28.9103 8.1956 29.0738 7.35974 29.3282 6.16047L30.2367 2.09021H32.3991L29.8915 11.0484V15.3367H27.7473V11.0484H27.7292Z" fill="white"/>
<path d="M44.9006 5.66992V15.355H43.1926L43.0109 14.1739H42.9564C42.5021 15.0642 41.7934 15.5185 40.8667 15.5185C40.2307 15.5185 39.7583 15.3004 39.4494 14.8825C39.1405 14.4646 38.9951 13.8104 38.9951 12.9019V5.66992H41.1756V12.7747C41.1756 13.2108 41.2301 13.5197 41.321 13.7014C41.4118 13.8831 41.5754 13.974 41.7934 13.974C41.9751 13.974 42.1568 13.9195 42.3385 13.7923C42.5203 13.6832 42.6474 13.5379 42.7201 13.3562V5.66992H44.9006Z" fill="white"/>
<path d="M56.0757 5.66992V15.355H54.3676L54.1859 14.1739H54.1314C53.6771 15.0642 52.9685 15.5185 52.0418 15.5185C51.4058 15.5185 50.9333 15.3004 50.6244 14.8825C50.3155 14.4646 50.1702 13.8104 50.1702 12.9019V5.66992H52.3507V12.7747C52.3507 13.2108 52.4052 13.5197 52.496 13.7014C52.5869 13.8831 52.7504 13.974 52.9685 13.974C53.1502 13.974 53.3319 13.9195 53.5136 13.7923C53.6953 13.6832 53.8225 13.5379 53.8952 13.3562V5.66992H56.0757Z" fill="white"/>
<path d="M50.8243 3.85278H48.662V15.3367H46.536V3.85278H44.3737V2.09021H50.8243V3.85278Z" fill="white"/>
<path d="M63.2894 7.21439C63.1622 6.59658 62.9442 6.16048 62.6534 5.88792C62.3627 5.61536 61.9448 5.46999 61.436 5.46999C61.0362 5.46999 60.6547 5.57902 60.3094 5.81524C59.9642 6.03329 59.6916 6.34219 59.5099 6.70561H59.4917V1.59961H57.3839V15.3367H59.1828L59.4009 14.4282H59.4554C59.6189 14.7553 59.8733 15.0097 60.2186 15.2095C60.5638 15.3913 60.9272 15.5003 61.3452 15.5003C62.0902 15.5003 62.6171 15.155 62.9624 14.4827C63.3076 13.8104 63.4893 12.7383 63.4893 11.3028V9.77647C63.4711 8.66805 63.4166 7.81403 63.2894 7.21439ZM61.2906 11.1575C61.2906 11.8661 61.2543 12.4112 61.1998 12.811C61.1453 13.2108 61.0362 13.5015 60.9091 13.665C60.7637 13.8286 60.582 13.9194 60.3639 13.9194C60.1822 13.9194 60.0187 13.8831 59.8733 13.7922C59.7279 13.7014 59.6008 13.5742 59.5099 13.4106V7.92305C59.5826 7.66866 59.7098 7.45061 59.8915 7.2689C60.0732 7.10536 60.2731 7.01451 60.4729 7.01451C60.691 7.01451 60.8727 7.10536 60.9817 7.2689C61.1089 7.45061 61.1816 7.74134 61.2361 8.1411C61.2906 8.55903 61.3088 9.14049 61.3088 9.8855V11.1575H61.2906Z" fill="white"/>
</svg>
