<svg width="820" height="151" viewBox="0 0 820 151" fill="none" xmlns="http://www.w3.org/2000/svg">
<path d="M0 1H790C806.569 1 820 14.4315 820 31V121C820 137.569 806.569 151 790 151H0V1Z" fill="url(#paint0_linear_698_75)"/>
<path d="M42.3358 110V55.4545H57.4636V110H42.3358ZM49.9352 48.4233C47.6861 48.4233 45.7567 47.6776 44.1468 46.1861C42.5607 44.6709 41.7676 42.8598 41.7676 40.7528C41.7676 38.6695 42.5607 36.8821 44.1468 35.3906C45.7567 33.8755 47.6861 33.1179 49.9352 33.1179C52.1842 33.1179 54.1019 33.8755 55.688 35.3906C57.2979 36.8821 58.1028 38.6695 58.1028 40.7528C58.1028 42.8598 57.2979 44.6709 55.688 46.1861C54.1019 47.6776 52.1842 48.4233 49.9352 48.4233ZM84.7097 78.4659V110H69.5819V55.4545H83.9995V65.0781H84.6387C85.8461 61.9058 87.8702 59.3963 90.7111 57.5497C93.552 55.6795 96.9966 54.7443 101.045 54.7443C104.833 54.7443 108.135 55.5729 110.953 57.2301C113.77 58.8873 115.96 61.2547 117.522 64.3324C119.085 67.3864 119.866 71.0322 119.866 75.2699V110H104.738V77.9688C104.762 74.6307 103.91 72.0265 102.181 70.1562C100.453 68.2623 98.0738 67.3153 95.0435 67.3153C93.0075 67.3153 91.2083 67.7533 89.6458 68.6293C88.1069 69.5052 86.8996 70.7836 86.0236 72.4645C85.1713 74.1217 84.7334 76.1222 84.7097 78.4659ZM161.121 55.4545V66.8182H127.456V55.4545H161.121ZM135.162 110V51.5128C135.162 47.5592 135.932 44.2803 137.471 41.6761C139.033 39.072 141.164 37.1188 143.863 35.8168C146.562 34.5147 149.627 33.8636 153.06 33.8636C155.38 33.8636 157.499 34.0412 159.417 34.3963C161.358 34.7514 162.802 35.071 163.749 35.3551L161.05 46.7188C160.458 46.5294 159.724 46.3518 158.849 46.1861C157.996 46.0204 157.12 45.9375 156.221 45.9375C153.995 45.9375 152.445 46.4583 151.569 47.5C150.693 48.518 150.255 49.9503 150.255 51.7969V110H135.162ZM193.055 111.065C187.539 111.065 182.768 109.893 178.744 107.55C174.743 105.182 171.653 101.892 169.475 97.6776C167.297 93.4399 166.208 88.5275 166.208 82.9403C166.208 77.3059 167.297 72.3816 169.475 68.1676C171.653 63.9299 174.743 60.6392 178.744 58.2955C182.768 55.928 187.539 54.7443 193.055 54.7443C198.571 54.7443 203.329 55.928 207.33 58.2955C211.355 60.6392 214.456 63.9299 216.634 68.1676C218.812 72.3816 219.901 77.3059 219.901 82.9403C219.901 88.5275 218.812 93.4399 216.634 97.6776C214.456 101.892 211.355 105.182 207.33 107.55C203.329 109.893 198.571 111.065 193.055 111.065ZM193.126 99.3466C195.635 99.3466 197.731 98.6364 199.411 97.2159C201.092 95.7718 202.359 93.8068 203.211 91.321C204.087 88.8352 204.525 86.0062 204.525 82.8338C204.525 79.6615 204.087 76.8324 203.211 74.3466C202.359 71.8608 201.092 69.8958 199.411 68.4517C197.731 67.0076 195.635 66.2855 193.126 66.2855C190.593 66.2855 188.462 67.0076 186.734 68.4517C185.029 69.8958 183.739 71.8608 182.863 74.3466C182.011 76.8324 181.585 79.6615 181.585 82.8338C181.585 86.0062 182.011 88.8352 182.863 91.321C183.739 93.8068 185.029 95.7718 186.734 97.2159C188.462 98.6364 190.593 99.3466 193.126 99.3466Z" fill="url(#paint1_linear_698_75)"/>
<defs>
<linearGradient id="paint0_linear_698_75" x1="0" y1="151" x2="820" y2="1.00001" gradientUnits="userSpaceOnUse">
<stop stop-color="#54E7F1"/>
<stop offset="1" stop-color="#F2EEEE"/>
</linearGradient>
<linearGradient id="paint1_linear_698_75" x1="3.8743e-06" y1="148" x2="271.742" y2="26.1972" gradientUnits="userSpaceOnUse">
<stop stop-color="#54E7F1"/>
<stop offset="0.441434" stop-color="#E6E4E7" stop-opacity="0.8"/>
<stop offset="1" stop-color="#E6E4E7"/>
</linearGradient>
</defs>
</svg>
