<svg width="820" height="150" viewBox="0 0 820 150" fill="none" xmlns="http://www.w3.org/2000/svg">
<path d="M0 30C0 13.4315 13.4315 0 30 0H820V150H30C13.4315 150 0 136.569 0 120V30Z" fill="url(#paint0_linear_695_75)"/>
<path d="M576.949 132.455V57.4545H591.864V66.6165H592.539C593.201 65.1487 594.16 63.6572 595.415 62.142C596.693 60.6032 598.351 59.3248 600.387 58.3068C602.446 57.2652 605.003 56.7443 608.057 56.7443C612.034 56.7443 615.704 57.786 619.066 59.8693C622.427 61.929 625.114 65.0421 627.127 69.2088C629.139 73.3518 630.145 78.5483 630.145 84.7983C630.145 90.8826 629.163 96.0199 627.198 100.21C625.256 104.377 622.605 107.537 619.243 109.692C615.905 111.822 612.164 112.888 608.021 112.888C605.086 112.888 602.588 112.402 600.529 111.432C598.493 110.461 596.824 109.242 595.521 107.774C594.219 106.283 593.225 104.779 592.539 103.264H592.077V132.455H576.949ZM591.757 84.7273C591.757 87.9706 592.207 90.7997 593.107 93.2145C594.006 95.6293 595.308 97.5114 597.013 98.8608C598.718 100.187 600.789 100.849 603.227 100.849C605.69 100.849 607.773 100.175 609.477 98.8253C611.182 97.4522 612.472 95.5582 613.348 93.1435C614.248 90.705 614.698 87.8996 614.698 84.7273C614.698 81.5786 614.26 78.8087 613.384 76.4176C612.508 74.0265 611.218 72.1562 609.513 70.8068C607.808 69.4574 605.713 68.7827 603.227 68.7827C600.765 68.7827 598.682 69.4337 596.977 70.7358C595.297 72.0379 594.006 73.8845 593.107 76.2756C592.207 78.6667 591.757 81.4839 591.757 84.7273ZM655.358 39.2727V112H640.23V39.2727H655.358ZM683.03 113.03C679.55 113.03 676.449 112.426 673.726 111.219C671.004 109.988 668.849 108.177 667.263 105.786C665.701 103.371 664.92 100.364 664.92 96.7656C664.92 93.7353 665.476 91.1903 666.589 89.1307C667.701 87.071 669.216 85.4138 671.134 84.1591C673.052 82.9044 675.23 81.9574 677.668 81.3182C680.13 80.679 682.711 80.2292 685.41 79.9688C688.582 79.6373 691.139 79.3295 693.08 79.0455C695.021 78.7377 696.43 78.2879 697.306 77.696C698.182 77.1042 698.62 76.2282 698.62 75.0682V74.8551C698.62 72.6061 697.91 70.866 696.489 69.6349C695.092 68.4039 693.104 67.7884 690.523 67.7884C687.801 67.7884 685.635 68.392 684.025 69.5994C682.415 70.7831 681.349 72.2746 680.829 74.0739L666.837 72.9375C667.547 69.6231 668.944 66.7585 671.028 64.3438C673.111 61.9053 675.798 60.035 679.089 58.733C682.403 57.4072 686.238 56.7443 690.594 56.7443C693.625 56.7443 696.525 57.0994 699.295 57.8097C702.088 58.5199 704.562 59.6207 706.716 61.1122C708.894 62.6037 710.611 64.5213 711.866 66.8651C713.12 69.1851 713.748 71.9669 713.748 75.2102V112H699.401V104.436H698.975C698.099 106.141 696.927 107.644 695.459 108.946C693.992 110.224 692.228 111.231 690.168 111.964C688.108 112.675 685.729 113.03 683.03 113.03ZM687.363 102.589C689.588 102.589 691.553 102.152 693.258 101.276C694.962 100.376 696.3 99.1686 697.27 97.6534C698.241 96.1383 698.726 94.4219 698.726 92.5043V86.7159C698.253 87.0237 697.602 87.3078 696.773 87.5682C695.968 87.8049 695.057 88.0298 694.039 88.2429C693.021 88.4323 692.003 88.6098 690.985 88.7756C689.967 88.9176 689.044 89.0478 688.215 89.1662C686.439 89.4266 684.889 89.8409 683.563 90.4091C682.237 90.9773 681.207 91.7467 680.474 92.7173C679.74 93.6643 679.373 94.848 679.373 96.2685C679.373 98.3281 680.118 99.9025 681.61 100.991C683.125 102.057 685.043 102.589 687.363 102.589ZM732.871 132.455C730.953 132.455 729.154 132.301 727.473 131.993C725.816 131.709 724.443 131.342 723.354 130.892L726.763 119.599C728.538 120.144 730.136 120.44 731.557 120.487C733.001 120.535 734.244 120.203 735.285 119.493C736.351 118.783 737.215 117.575 737.878 115.871L738.765 113.562L719.199 57.4545H735.108L746.4 97.5114H746.969L758.368 57.4545H774.383L753.183 117.895C752.165 120.83 750.78 123.387 749.028 125.565C747.3 127.767 745.11 129.46 742.459 130.643C739.807 131.851 736.611 132.455 732.871 132.455Z" fill="url(#paint1_linear_695_75)"/>
<defs>
<linearGradient id="paint0_linear_695_75" x1="0" y1="0" x2="820" y2="150" gradientUnits="userSpaceOnUse">
<stop stop-color="#F2EEEE"/>
<stop offset="1" stop-color="#E876FF"/>
</linearGradient>
<linearGradient id="paint1_linear_695_75" x1="527" y1="2" x2="820" y2="150" gradientUnits="userSpaceOnUse">
<stop stop-color="#E876FF"/>
<stop offset="0.441434" stop-color="#E6E4E7" stop-opacity="0.8"/>
<stop offset="1" stop-color="#E6E4E7"/>
</linearGradient>
</defs>
</svg>
